<svg xmlns="http://www.w3.org/2000/svg" viewBox="0 0 64 80" x="0px" y="0px"><title>1</title><path d="M53.29785,7.19385C53.34271,5.87294,52.284,5.254,46.459,4.61615,42.59082,4.21875,37.45605,4,32,4s-10.59082.21875-14.459.61621c-5.84024.63971-6.88244,1.25375-6.83677,2.5929-.10477.05528,5.79914,50.38741,5.72811,50.46947a.99885.99885,0,0,0,.78737.86585,83.08121,83.08121,0,0,0,15.66308,1.4668,64.15789,64.15789,0,0,0,14.16407-1.4707.999.999,0,0,0,.77148-.8667C47.83263,57.54216,53.28476,7.31488,53.29785,7.19385ZM49.51514,23.50818c-3.58512-.69692-4.8069-1.4039-9.9751-1.41833a28.59843,28.59843,0,0,0-7.77441.93749,26.57711,26.57711,0,0,1-7.31543.88282c-5.1071-.00194-6.18792-.77692-10.00323-1.45254L12.90015,8.82935a32.47926,32.47926,0,0,0,4.64087.72631c9.40739.83275,24.43486,1.09318,33.56783-.72823ZM32,6A111.6219,111.6219,0,0,1,49.77246,7.08594,111.6219,111.6219,0,0,1,32,8.17188,111.6219,111.6219,0,0,1,14.22754,7.08594,111.6219,111.6219,0,0,1,32,6ZM45.90723,56.74414c-11.82813,2.52051-24.48828.53516-27.57129-.02246L14.68225,24.53094c3.44581.69213,4.70576,1.36228,9.76794,1.37921,7.6171.01289,7.64263-1.81127,15.08985-1.82033,5.00093.00668,6.09992.72719,9.75854,1.41313Z"/><text x="0" y="79" fill="#000000" font-size="5px" font-weight="bold" font-family="'Helvetica Neue', Helvetica, Arial-Unicode, Arial, Sans-serif">Created by Selot Lo</text><text x="0" y="84" fill="#000000" font-size="5px" font-weight="bold" font-family="'Helvetica Neue', Helvetica, Arial-Unicode, Arial, Sans-serif">from the Noun Project</text></svg>